<?xml version="1.0" encoding="UTF-8" standalone="no"?>
<!DOCTYPE svg PUBLIC "-//W3C//DTD SVG 1.1//EN" "http://www.w3.org/Graphics/SVG/1.1/DTD/svg11.dtd">
<svg width="100%" height="100%" viewBox="0 0 1863 2480" version="1.1" xmlns="http://www.w3.org/2000/svg" xmlns:xlink="http://www.w3.org/1999/xlink" xml:space="preserve" xmlns:serif="http://www.serif.com/" style="fill-rule:evenodd;clip-rule:evenodd;stroke-linecap:round;stroke-linejoin:round;stroke-miterlimit:1.5;">
    <g transform="matrix(3.080986,0,0,3.080986,-4149.142346,-2730.675538)">
        <path d="M1448.74,1691.339L1346.693,1589.291L1346.693,1154.646L1615.039,886.299L1947.638,886.299L1872.047,961.89L1641.496,961.89L1463.858,1139.528L1732.205,1139.528L1641.024,1226.929L1448.74,1226.929L1448.74,1691.339Z" style="fill:rgb(24,79,136);stroke:black;stroke-width:0.32px;"/>
    </g>
    <g transform="matrix(3.080986,0,0,3.080986,-4197.758842,-2787.176446)">
        <path d="M1860.709,1158.425L1788.425,1230.709L1788.425,1482.793L1894.488,1365.263L1894.488,984.567L1966.417,912.638L1966.417,1394.677L1688.681,1709.677L1688.681,1240.157L1862.805,1066.033L1860.709,1158.425Z" style="fill:rgb(125,163,201);stroke:black;stroke-width:0.32px;"/>
    </g>
</svg>
